<svg fill="none" height="147" viewBox="0 0 35 147" width="35" xmlns="http://www.w3.org/2000/svg"><g fill="#09090a"><path d="m20.034 118.479h-5.0531c-.1587.011-.24.092-.24.24v7.452h-1.9267v-7.452c0-.122-.0111-.192-.0295-.21-.0185-.019-.0886-.03-.2104-.03h-1.6832c-.1513 0-.2288.081-.2399.24v7.452h-1.92676v-7.212c0-.159.01107-.292.03691-.399s.09228-.214.20301-.324l1.44324-1.442c.1107-.111.2178-.177.3248-.203s.2399-.037.3986-.037h.24c.1587 0 .3063.026.4429.082.1366.055.3064.188.5204.398l1.2033 1.442c.0702.07.144.106.2252.106.0886 0 .1772-.033.2547-.106l1.2033-1.442c.2104-.21.3839-.343.5204-.398.1366-.056.2843-.082.443-.082h2.6465c.251 0 .4835.063.7013.188.2141.126.3839.303.502.535l1.9268 4.569c.1513.298.2325.619.2399.962v3.363h-1.9268v-7.452c-.0111-.159-.0886-.24-.2399-.24z"/><path d="m12.6112 107.022c.0258-.106.0923-.213.203-.324l1.4432-1.442c.1108-.11.2178-.177.3248-.203.1071-.025.24-.036.3987-.036h3.8498c.251 0 .4835.062.7013.188.2178.125.3839.302.502.534l1.9268 4.569c.1513.299.2325.619.2399.962v1.202c.0111.163.0886.24.2399.24h3.6099v1.925h-13.4762v-7.213c0-.158.011-.291.0369-.398zm7.6627 5.447v-5.288c0-.151-.0812-.229-.2399-.24h-5.293c-.1514 0-.2289.081-.24.24v5.288c.0111.162.0886.239.24.239h5.293c.1624-.011.2399-.088.2399-.239z"/><path d="m14.5822 103.055c-.107-.026-.2141-.092-.3248-.203l-1.4432-1.442c-.1107-.11-.1772-.217-.203-.324-.0259-.107-.0369-.24-.0369-.398v-4.8088c0-.1586.011-.2913.0369-.3983.0258-.1069.0923-.2138.203-.3245l1.4432-1.4417c.1107-.1106.2178-.177.3248-.2028.1071-.0258.24-.0369.3987-.0369h4.8132c.1587 0 .2916.0147.3986.0369.1071.0258.2141.0922.3248.2028l1.4433 1.4417c.1107.1107.1771.2176.203.3245.0258.107.0369.2397.0369.3983v4.8088c0 .158-.0111.291-.0369.398-.0259.107-.0923.214-.203.324l-1.4433 1.442c-.1107.111-.2177.177-.3248.203-.107.026-.2399.037-.3986.037h-4.8132c-.1587 0-.2916-.011-.3987-.037zm5.6917-2.128v-5.2875c-.0111-.1586-.0886-.2397-.2399-.2397h-5.2931c-.1513 0-.2288.0811-.2399.2397v5.2875c.0111.159.0886.24.2399.24h5.2931c.1513 0 .2325-.081.2399-.24z"/><path d="m14.501 84.1016v5.2877c.0111.1586.0886.2397.2399.2397h7.4598v1.9248h-9.6264v-7.2125c0-.1623.011-.2913.0369-.3983.0258-.1069.0923-.2138.203-.3245l1.4432-1.4417c.1107-.1107.2178-.177.3248-.2028.1071-.0259.24-.0369.3987-.0369h7.2198v1.9248h-7.4598c-.1513 0-.2288.0811-.2399.2397z"/><path d="m8.72444 78.0911h3.60986c.1588 0 .24-.0811.24-.2396v-7.4523h1.9267v7.4523c0 .1622.0812.2396.2399.2396h5.2931c.1624-.011.2399-.0885.2399-.2396v-7.4523h1.9268v3.3666c-.0111.3393-.0886.6601-.2399.9624l-1.9268 4.5687c-.1218.2286-.2879.4093-.502.5347s-.4503.1881-.7013.1881h-10.10626v-1.9249z"/><path d="m14.5822 68.4375c-.107-.0258-.2141-.0921-.3248-.2028l-1.4432-1.4417c-.1107-.1107-.1772-.2176-.203-.3245-.0259-.107-.0369-.2397-.0369-.3983v-4.8083c0-.1586.011-.2913.0369-.3983.0258-.1069.0923-.2138.203-.3245l1.4432-1.4417c.1107-.1107.2178-.177.3248-.2028.1071-.0259.24-.0369.3987-.0369h4.8132c.1587 0 .2916.0147.3986.0369.1071.0258.2141.0921.3248.2028l1.4433 1.4417c.1107.1107.1771.2176.203.3245.0258.107.0369.2397.0369.3983v4.8083c0 .1586-.0111.2913-.0369.3983-.0259.1069-.0923.2138-.203.3245l-1.4433 1.4417c-.1107.1107-.2177.177-.3248.2028-.107.0259-.2399.0369-.3986.0369h-4.8132c-.1587 0-.2916-.011-.3987-.0369zm5.6917-2.1276v-5.2877c-.0111-.1586-.0886-.2397-.2399-.2397h-5.2931c-.1513 0-.2288.0811-.2399.2397v5.2877c.0111.1586.0886.2397.2399.2397h5.2931c.1513 0 .2325-.0811.2399-.2397z"/><path d="m16.3577 54.9453c.0442-.0442.0664-.1032.0664-.1733v-5.048c0-.1623.0111-.2913.0369-.3983.0258-.1069.0923-.2138.203-.3245l1.4432-1.4417c.1108-.1107.2141-.177.3101-.2029.096-.0258.2325-.0368.4134-.0368h.9634c.1587 0 .2916.011.3986.0368.1071.0259.2141.0922.3248.2029l1.4433 1.4417c.1107.1107.1771.2176.203.3245.0258.107.0369.236.0369.3983v7.2125h-1.9268v-7.4522c0-.1512-.0812-.2286-.2399-.2397h-1.4432c-.1514 0-.2289.0811-.2399.2397v5.048c0 .1586-.0111.2913-.037.3983-.0258.1069-.0922.2138-.203.3245l-1.4432 1.4417c-.1513.1512-.3913.2287-.7235.2397-.262 0-.4946-.0627-.7086-.188-.2104-.1254-.3765-.3024-.4947-.5347l-1.9267-4.5687c-.1513-.2987-.2289-.6195-.2399-.9624v-3.3666h1.9267v7.4522c0 .0701.0222.1291.0665.1733.0443.0443.1033.0664.1734.0664h1.4433c.0701 0 .1292-.0221.1735-.0664z"/><path d="m32.408 18.2346c-.0184-.0012-.0331.005-.0467.0175-.0135.0124-.0208.0299-.0221.0498l-.0294.4178-.2163-.015.0295-.4177c.0013-.0212-.0037-.0387-.0147-.0524-.0111-.0137-.0258-.0224-.0442-.0237-.0111 0-.0234.0013-.0381.0075l-.3722.1858-.0946-.1995.3722-.1833c.0258-.01.0393-.0287.0405-.0562.0013-.0249-.0098-.0449-.0331-.0611l-.3428-.2382.1216-.1808.3428.2345c.0135.0074.0245.0124.0368.0124.0185 0 .0332-.0037.0467-.0149.0135-.0113.0209-.0275.0221-.0487l.0295-.4215.2162.015-.0295.4215c-.0012.0199.0037.0374.0148.0511.011.0137.0258.0212.0442.0225.0111 0 .0233-.0013.0381-.0075l.3722-.1833.0946.1958-.3722.1858c-.0258.0124-.0393.0299-.0406.0561-.0012.0249.0086.0449.0332.0611l.3427.2344-.1216.1834-.3427-.2382c-.0135-.0075-.0246-.0125-.0369-.0125z"/><path d="m29.8921 20.6988 1.102.2769c.0356.0062.0577-.0063.0651-.0399l.4017-1.6524.4201.1048-.4017 1.6523c-.0061.0262-.0086.0424-.0049.0487.0037.005.0184.0112.0442.0187l.3673.0923c.0332.0087.0553-.005.0651-.04l.4017-1.6523.4202.1047-.3894 1.5988c-.0086.0349-.0185.0636-.0295.086-.0111.0225-.032.0424-.0615.0611l-.3931.2407c-.0294.0187-.0565.0275-.081.0275-.0246 0-.0541-.005-.0885-.0138l-.0528-.0137c-.0356-.0087-.0663-.0224-.0921-.0424-.0271-.0199-.0566-.0586-.0922-.1172l-.1843-.3854c-.011-.0199-.0257-.0311-.0429-.0361-.0197-.005-.0406-.0013-.0615.0087l-.3403.2544c-.0577.0349-.1019.0549-.1351.0599-.0319.005-.0663.0025-.1007-.0063l-.5774-.1446c-.0553-.0137-.102-.0399-.1425-.0798s-.0676-.0886-.0811-.1459l-.1732-1.1174c-.016-.0748-.0172-.1509 0-.227l.1818-.7457.4202.1047-.4018 1.6524c-.0061.0362.0062.0586.0394.0661z"/><path d="m30.4277 23.8115c-.0147.0187-.0393.0349-.0724.0474l-.4325.1571c-.0331.0125-.0614.015-.0847.01-.0234-.005-.0516-.0149-.0848-.0312l-.7825-.3753c-.0516-.025-.0922-.0599-.1241-.1073s-.0491-.0997-.0516-.1596l.0479-1.1311c-.0012-.0761.0123-.1509.043-.222l.1155-.2481c.0135-.0337.0049-.0587-.0258-.0736l-.7334-.3517.1843-.3966 2.737 1.3145-.6941 1.489c-.016.0336-.0307.0598-.0454.0785zm-1.0331-1.8718-.5086 1.0912c-.0147.0311-.0061.0548.0258.0735l1.0749.5163c.0307.015.0541.0063.0725-.0262l.5086-1.0912c.0135-.0336.0049-.0586-.0258-.0735l-1.0749-.5163c-.0332-.0137-.0578-.005-.0725.0262z"/><path d="m29.4929 24.6071c.0159.0187.0258.0462.0307.0811l.0663.4614c.0049.0349.0025.0636-.0073.0873-.0099.0237-.0258.0486-.0467.0786l-.6462.8804c-.0221.0299-.0418.0524-.0602.0673-.0184.015-.0454.0262-.0798.0312l-.4546.0674c-.0344.005-.0626.0025-.086-.0075-.0233-.01-.0479-.0262-.0774-.0474l-.8673-.656c-.0294-.0212-.0516-.0424-.0663-.0611-.016-.0187-.0258-.0461-.0307-.081l-.0663-.4614c-.005-.035-.0025-.0636.0073-.0873.0099-.0225.0258-.0487.0467-.0786l.6462-.8804c.0221-.03.0418-.0524.0602-.0674.0184-.0162.0454-.0262.0798-.0312l.4546-.0673c.0344-.005.0626-.0025.086.0075.0233.01.0479.0262.0773.0474l.8673.6559c.0295.0225.0516.0424.0664.0611zm-1.3108-.3866-.7113.969c-.0196.0312-.0159.0561.0111.0773l.9545.7221c.027.0212.0528.0162.0762-.0112l.7112-.969c.0197-.0312.016-.0561-.011-.0773l-.9545-.7221c-.0271-.0199-.0529-.0162-.0762.0112z"/><path d="m26.5347 28.0017.8845-.8081c.0258-.0262.0271-.0524.0037-.0774l-1.1216-1.2645.3219-.2943 1.4483 1.6312-1.2051 1.1024c-.027.0249-.0503.0424-.0725.0549-.0221.0124-.0491.0162-.0847.0149l-.4582-.0237c-.0357-.0025-.0627-.0099-.0823-.0237-.0197-.0137-.0418-.0349-.0664-.0623l-1.0859-1.2234.3218-.2943 1.1216 1.2645c.0221.025.0479.0262.0762.0038z"/><path d="m25.9365 30.0843-.414-.7083c-.0184-.0312-.043-.0375-.0737-.0187l-1.4422.8679-.2212-.3778 1.4423-.868c.0307-.0187.0368-.0437.0184-.0748l-.6069-1.0388c-.0209-.03-.0454-.0362-.0737-.0188l-1.4422.868-.2211-.3779.6511-.3915c.0675-.0374.1375-.0599.2137-.0649l1.1044-.1546c.059-.0038.1118.0087.1609.0361.0492.0275.0872.0661.1167.1148l1.1585 1.9828-.3723.2245z"/><path d="m23.1786 30.113c.0024.0249-.0037.0524-.0197.0848l-.199.4203c-.0147.0324-.0332.0548-.054.0685-.0209.0138-.048.0262-.0824.0387l-1.0208.3629c-.0344.0125-.0627.02-.0872.0225-.0246.0024-.0516-.0038-.0836-.02l-.414-.202c-.0319-.015-.054-.0337-.0675-.0549s-.0258-.0486-.0381-.0836l-.3575-1.0363c-.0123-.0349-.0196-.0636-.0221-.0885-.0025-.025.0037-.0524.0197-.0848l.199-.4203c.0147-.0324.0331-.0548.054-.0686.0209-.0137.0479-.0262.0823-.0386l1.0209-.3629c.0344-.0125.0626-.02.0872-.0225s.0516.0038.0835.02l.414.202c.032.015.0541.0337.0676.0549s.0258.0486.0381.0835l.3575 1.0364c.0122.0349.0196.0636.0221.0885zm-.8735-1.0663-1.1228.3991c-.0331.0137-.0442.0374-.0331.0698l.3931 1.1399c.011.0324.0344.0436.0688.0336l1.1228-.399c.0331-.0137.0442-.0374.0331-.0699l-.3931-1.1398c-.011-.0324-.0344-.0436-.0688-.0337z"/><path d="m20.0104 30.6505c-.0111-.0088-.0246-.0125-.0406-.01l-1.1253.1571c-.0356.005-.0651.0062-.0896.0038-.0246-.0025-.0504-.015-.0787-.0362l-.366-.2819c-.0283-.0212-.0467-.0424-.0541-.0636-.0086-.0212-.016-.0511-.0209-.0922l-.0295-.217c-.0049-.0362-.0061-.0661-.0036-.0911.0024-.0249.0147-.0511.0356-.0798l.2776-.3716c.0209-.0287.043-.0474.0664-.0561.0221-.0088.0516-.0162.0872-.0212l1.6068-.2245.059.4352-1.6609.232c-.0332.005-.0491.0249-.0467.0623l.0442.3268c.0049.0336.0246.0499.0615.0474l1.1252-.1572c.0357-.005.0651-.0062.0897-.0037s.0504.0137.0786.0362l.3661.2818c.0381.0299.0639.0811.0762.1559.0073.0586 0 .1147-.0209.1658-.0209.0512-.0565.0948-.1032.1285l-.9594.5774c-.0627.0436-.1315.0711-.2064.0848l-.7494.1047-.0589-.4352 1.6608-.2319c.016-.0025.0283-.0088.0369-.0212.0086-.0113.0123-.025.0098-.0412l-.0442-.3267c-.0025-.0162-.0086-.0287-.0209-.0374z"/><path d="m16.7697 32.0833c0-.0187-.0062-.0336-.0185-.0473-.0135-.0125-.0294-.02-.0503-.0212l-.4116-.0138.0074-.2194.4116.0137c.0208 0 .0368-.005.0515-.0175.0136-.0125.0209-.0274.0222-.0461 0-.0113-.0025-.0237-.0086-.0374l-.1978-.3704.1928-.1035.1941.3703c.0099.025.0295.0387.0566.04.0245 0 .0442-.0113.0589-.0362l.2211-.3567.1819.116-.2175.3567c-.0074.0137-.011.0262-.011.0374 0 .0187.0049.0337.0172.0474.0122.0124.0282.0199.0479.0199l.4152.0137-.0074.2195-.4152-.0137c-.0209 0-.0369.005-.0491.0175-.0123.0124-.0197.0274-.0197.0461 0 .0112.0025.0237.0086.0374l.1941.3704-.1892.1035-.1978-.3704c-.0122-.0262-.0319-.0386-.0565-.0399-.0245 0-.0442.0112-.0589.0362l-.2175.3566-.1855-.1159.2211-.3567c.0074-.0137.0111-.0262.0111-.0374z"/><path d="m14.2464 29.6304-.2285 1.1298c-.0049.0362.0086.0574.0418.0649l1.6424.3416-.0872.4303-1.6424-.3417c-.0271-.005-.0418-.0062-.048-.0025-.0049.0037-.011.0187-.0159.0461l-.0762.3767c-.0074.0336.0074.0548.0418.0648l1.6424.3417-.0872.4302-1.5896-.3304c-.0356-.0075-.0639-.0162-.086-.0262s-.043-.0312-.0614-.0599l-.2531-.3891c-.0197-.0299-.0295-.0573-.0307-.081 0-.025.0024-.0549.0098-.0911l.0111-.0536c.0073-.0362.0196-.0673.0381-.0948.0184-.0274.0552-.0598.1117-.0972l.3723-.2033c.0184-.0125.0295-.0274.0331-.0462.0037-.0199 0-.0411-.011-.0623l-.2641-.3355c-.0369-.0573-.0578-.101-.0639-.1347-.0062-.0324-.0049-.0673.0012-.1035l.1192-.5911c.011-.0561.0356-.1047.0725-.1471.0368-.0424.0835-.0724.14-.0886l1.0933-.2207c.0725-.02.1474-.0237.2224-.01l.742.1547-.0872.4302-1.6425-.3417c-.0356-.005-.0565.0087-.0639.0424z"/><path d="m11.2023 30.2963c-.0197-.015-.0357-.0387-.0492-.0711l-.172-.4315c-.0135-.0324-.0172-.0611-.0135-.086.0037-.025.0135-.0537.0271-.0873l.339-.8081c.0221-.0524.0553-.096.1008-.1297.0454-.0337.097-.0536.1547-.0586l1.1155.0037c.0749-.005.1486.0075.2199.0349l.2494.1073c.0344.0124.0577.0025.0712-.0287l.317-.7582.398.1721-1.1855 2.8296-1.4926-.6448c-.0331-.0137-.0602-.0286-.0786-.0436zm1.8021-1.1211-1.0945-.4727c-.0307-.0137-.0553-.0037-.0713.0287l-.4656 1.1112c-.0135.0311-.0037.0561.0283.0723l1.0945.4726c.0344.0125.0578.0025.0713-.0287l.4656-1.1111c.0123-.0349.0024-.0586-.0283-.0723z"/><path d="m10.3817 29.3797c-.0185.0162-.0443.0274-.0787.0349l-.45081.0861c-.0344.0062-.06266.005-.086-.0038-.02211-.0087-.04914-.0237-.07862-.0449l-.89186-.621c-.02949-.0212-.05283-.0399-.0688-.0586s-.02825-.0449-.03439-.0798l-.08354-.4577c-.00614-.0349-.00491-.0636.00368-.0873.0086-.0224.02335-.0499.04423-.0798l.61178-.9054c.02088-.0299.03931-.0536.05773-.0698.01843-.0162.04423-.0287.07862-.0349l.45085-.0861c.0344-.0062.06265-.005.08599.0038.02334.0087.04914.0236.07864.0448l.8919.6211c.0294.0212.0528.0399.0687.0586.016.0187.0283.0449.0344.0798l.0848.4577c.0061.0349.0049.0636-.0037.0873-.0086.0224-.0233.0499-.0442.0798l-.6118.9054c-.0209.0299-.0393.0536-.0577.0698zm.328-1.3456-.98159-.6821c-.03071-.0187-.05651-.0138-.07494.0137l-.67319.9964c-.01966.0287-.01475.0536.01351.0761l.98154.6821c.03067.0187.05647.0137.07497-.0137l.6732-.9964c.0196-.0287.0147-.0536-.0135-.0761z"/><path d="m6.92476 26.5139.83044.8655c.02703.0249.05282.0249.07616 0l1.20021-1.1872.30221.3142-1.5491 1.5327-1.13264-1.1798c-.0258-.0261-.04423-.0498-.05651-.071s-.01843-.0499-.01843-.0848l.00614-.4664c0-.0362.00738-.0636.01966-.0848.01351-.0212.03194-.0437.05774-.0699l1.16213-1.1498.3022.3143-1.20021 1.1872c-.02457.0237-.02457.0499 0 .0773z"/><path d="m4.85234 25.9889.68057-.4477c.03071-.02.03563-.0449.01597-.0761l-.91152-1.4279.36363-.2394.91152 1.4279c.01965.0312.04422.0361.07493.0162l.99874-.6572c.02949-.0212.0344-.0474.01597-.0761l-.91152-1.4279.36363-.2394.41153.6447c.03931.0661.06388.1384.07248.2145l.19533 1.1136c.00491.0587-.00491.1135-.02948.1647-.0258.0511-.06143.091-.10934.1222l-1.90657 1.2533-.23587-.3691z"/><path d="m4.71352 23.1905c-.02457.0037-.0516-.0013-.08477-.0162l-.42136-.1859c-.03194-.0137-.05528-.0311-.06879-.0511-.01352-.0199-.02703-.0474-.04054-.0811l-.3968-1.0213c-.01351-.0337-.02211-.0636-.02457-.0873-.00368-.0249.00123-.0524.01597-.086l.18305-.4278c.01351-.0324.03071-.0561.05036-.0698.01966-.0137.04668-.0275.07985-.0412l1.00612-.4028c.03316-.0137.06265-.0224.08599-.0249.02457-.0038.05159.0025.08476.0162l.42137.1858c.03194.0137.05528.0312.06879.0511.01351.02.02703.0474.04054.0811l.39679 1.0213c.01352.0337.02212.0636.02457.0873.00369.025-.00123.0537-.01597.0861l-.18304.4277c-.01351.0325-.03071.0561-.05037.0699-.01965.0137-.04668.0274-.07985.0411l-1.00611.4028c-.03317.0137-.06265.0225-.08599.025zm1.01348-.9279-.43733-1.1236c-.01474-.0336-.03931-.0436-.07002-.0311l-1.10685.4439c-.03194.0125-.04177.0362-.03071.0711l.43733 1.1236c.01474.0337.03808.0437.07002.0312l1.10685-.444c.03194-.0124.04177-.0361.03071-.0711z"/><path d="m4.05875 20.0017c.0086-.0125.01106-.0262.0086-.0412l-.19901-1.1348c-.00614-.0362-.0086-.0661-.00737-.091.00123-.025.01228-.0512.03194-.0811l.26289-.3816c.01965-.0287.04054-.0486.06019-.0574.01966-.0099.05037-.0174.08968-.0249l.21253-.0387c.03562-.0062.0651-.0087.08967-.0074.02457.0012.05037.0124.07985.0324l.37591.2669c.02826.0199.04791.0411.05774.0648s.0172.0524.02457.0885l.285 1.6212-.42627.0774-.29361-1.6749c-.00614-.0336-.02702-.0486-.06265-.0449l-.3194.0574c-.03317.0062-.04791.0275-.04422.0636l.19901 1.1349c.00614.0361.0086.066.00737.091-.00123.0249-.01229.0511-.03194.081l-.26289.3817c-.02703.0399-.0774.0673-.14987.0835-.05774.01-.11179.0062-.16339-.0137-.0516-.02-.09459-.0524-.13022-.0998l-.60563-.9502c-.04545-.0612-.07617-.131-.09091-.2071l-.13267-.7569.42628-.0774.2936 1.6749c.00246.0162.00983.0274.02211.0361.01229.0088.0258.0113.04054.0088l.3194-.0574c.01597-.0025.02703-.01.03563-.0225z"/><path d="m2.59196 15.7666c.01843.0013.03317-.005.04668-.0174.01352-.0125.02089-.03.02212-.0499l.02948-.4178.21621.015-.02948.4178c-.00123.0212.00368.0386.01474.0523.01105.0138.02579.0225.04422.0237.01106 0 .02334-.0012.03808-.0075l.37223-.1858.09459.1996-.37222.1833c-.0258.01-.03932.0287-.04054.0561-.00123.0249.00982.0449.03316.0611l.34275.2382-.12162.1808-.34274-.2344c-.01352-.0075-.02457-.0125-.03686-.0125-.01842-.0012-.03317.0037-.04668.015-.01351.0112-.02088.0274-.02211.0486l-.02948.4215-.21621-.0149.02948-.4216c.00123-.0199-.00369-.0374-.01474-.0511-.01106-.0137-.0258-.0212-.04423-.0224-.01105 0-.02334.0012-.03808.0074l-.37222.1834-.0946-.1958.37223-.1858c.0258-.0125.03931-.03.04054-.0562.00123-.0249-.0086-.0448-.03317-.0611l-.34274-.2344.12162-.1833.34274.2382c.01351.0074.02457.0124.03685.0124z"/><path d="m5.10663 13.3024-1.10193-.2768c-.03563-.0063-.05774.0062-.06511.0399l-.40171 1.6524-.42013-.1048.4017-1.6524c.00615-.0262.0086-.0424.00492-.0486-.00369-.005-.01843-.0112-.04423-.0187l-.36731-.0923c-.03317-.0087-.05405.005-.06511.0399l-.40171 1.6524-.42013-.1048.38942-1.5987c.0086-.0362.01843-.0649.02949-.0861.01105-.0212.03194-.0424.06142-.0611l.39311-.2407c.03071-.0187.05774-.0274.08108-.0274.02457 0 .05405.005.08845.0137l.05282.0137c.03563.0088.06634.0225.09214.0424.02702.02.05773.0587.09213.1173l.18427.3853c.01106.02.0258.0312.043.0362.01965.005.04054.0012.06142-.01l.34028-.2544c.05774-.0349.10197-.0549.13514-.0599.03194-.005.06633-.0025.10073.0063l.57738.1446c.05528.0137.10196.0399.1425.0798.04054.04.06757.0886.08108.146l.17321 1.1173c.01597.0749.0172.1509 0 .227l-.18181.7457-.42014-.1047.40171-1.6524c.00614-.0361-.00614-.0586-.03931-.0661z"/><path d="m4.57225 10.191c.01474-.0187.03931-.035.07248-.0474l.43242-.15715c.03317-.01248.06142-.01497.08476-.00998s.0516.01496.08477.03113l.78253.3754c.05159.025.09213.0599.12407.1073s.04914.0997.0516.1596l-.04791 1.1311c.00123.0761-.01229.1509-.043.222l-.11547.2481c-.01352.0337-.00492.0586.02579.0736l.7334.3517-.18427.3966-2.73702-1.3145.69408-1.489c.01597-.0336.03071-.0598.04545-.0785zm1.03314 1.8706.50858-1.0912c.01474-.0312.00614-.0549-.0258-.0736l-1.0749-.5163c-.03071-.0149-.05405-.0062-.07248.0262l-.50859 1.0912c-.01351.0337-.00491.0586.0258.0736l1.07491.5163c.03317.0137.05774.005.07248-.0262z"/><path d="m5.50588 9.39409c-.01597-.01871-.0258-.04614-.03071-.08106l-.06634-.46142c-.00491-.03492-.00245-.0636.00737-.08729.00983-.02245.0258-.04864.04669-.07857l.64617-.88043c.02088-.02993.04177-.05238.06019-.06734.01843-.01622.04546-.02619.07985-.03118l.45453-.06734c.0344-.00499.06266-.0025.086.00748.02211.00998.04791.02619.07616.04739l.8673.65596c.02948.02245.05159.0424.06633.06111.01598.0187.0258.04614.03072.08106l.06633.46141c.00492.03492.00246.0636-.00737.0873-.00982.02244-.0258.04863-.04668.07856l-.64617.88047c-.02211.0299-.04177.0523-.0602.0673-.01842.0162-.04545.0262-.07985.0312l-.45453.0673c-.0344.005-.06265.0025-.08599-.0075-.02334-.0099-.04791-.0261-.07739-.0473l-.8673-.656c-.02948-.0212-.0516-.0424-.06634-.06111zm1.312.38659.71128-.96897c.01966-.03118.01597-.05612-.01105-.07732l-.95452-.72206c-.02703-.0212-.05282-.01621-.07617.01123l-.71128.96897c-.01965.03118-.01597.05612.01106.07732l.95452.72206c.02702.01995.05282.01621.07616-.01123z"/><path d="m8.46402 5.99955-.88449.8081c-.0258.02619-.02703.05238-.00368.07732l1.12158 1.26454-.32185.29431-1.44836-1.63118 1.20512-1.10241c.02703-.02494.05037-.0424.07248-.05487s.04914-.01621.08476-.01497l.45822.0237c.03563.00249.06265.00997.08231.02369.01965.01372.04177.03492.06633.06236l1.08597 1.22338-.32186.29431-1.12159-1.26454c-.02211-.02494-.04791-.02619-.07616-.00374z"/><path d="m9.06352 3.91695.41399.70834c.01843.03118.043.03741.07371.0187l1.44218-.86796.2212.37786-1.44226.86797c-.03071.0187-.03685.04365-.01843.07482l.60689 1.03881c.0209.02993.0454.03617.0737.01871l1.4422-.86796.2211.37786-.6511.39158c-.0663.03741-.1376.05986-.2137.06485l-1.1044.15464c-.059.00374-.1118-.00873-.16093-.03617-.04914-.02743-.08722-.06609-.11671-.11473l-1.15844-1.98285.37222-.22447z"/><path d="m11.8202 3.88952c-.0025-.02494.0037-.05238.0196-.0848l.1991-.42027c.0147-.03242.0331-.05487.054-.06859s.0479-.02619.0823-.03866l1.0209-.36289c.0344-.01248.0626-.01996.0872-.02245.0246-.0025.0516.00374.0835.01995l.414.20203c.032.01496.0541.03367.0664.05487.0135.0212.0258.04863.038.08355l.3575 1.03632c.0123.03492.0184.0636.0209.08854s-.0037.05238-.0196.0848l-.1991.41902c-.0147.03242-.0331.05487-.054.06859s-.0479.02619-.0823.03866l-1.0209.3629c-.0344.01247-.0626.01995-.0872.02244-.0246.0025-.0516-.00374-.0835-.01995l-.414-.20203c-.032-.01496-.0541-.03367-.0676-.05487s-.0258-.04863-.0381-.08355l-.3575-1.03632c-.0122-.03492-.0196-.0636-.0221-.08854zm.8734 1.065 1.1228-.39907c.0332-.01371.0443-.03741.0332-.06983l-.3931-1.13983c-.0111-.03242-.0344-.04365-.0688-.03367l-1.1228.39907c-.0332.01371-.0442.03741-.0332.06983l.3931 1.13983c.0111.03242.0344.04364.0688.03367z"/><path d="m14.9884 3.35076c.0111.00873.0246.01247.0405.00998l1.1253-.15713c.0356-.00499.0651-.00624.0897-.00374.0246.00249.0504.01372.0786.03616l.3661.28184c.0282.0212.0467.0424.054.0636.0086.0212.016.05113.0209.09229l.0295.21699c.0049.03616.0062.06734.0037.09103-.0025.02494-.0147.05113-.0356.07982l-.2777.37162c-.0208.02869-.043.04739-.0663.05612-.0221.00873-.0516.01621-.0872.0212l-1.6069.22448-.0589-.43523 1.6609-.23196c.0331-.00499.0491-.02494.0466-.06235l-.0442-.32674c-.0049-.03367-.0245-.04988-.0614-.04738l-1.1253.15713c-.0356.00498-.0651.00623-.0896.00374-.0246-.0025-.0504-.01372-.0787-.03617l-.3661-.28184c-.038-.02993-.0638-.08106-.0761-.15588-.0074-.05861 0-.11473.0209-.16586.0208-.05113.0565-.09478.1032-.12845l.9594-.57739c.0626-.04365.1314-.07109.2064-.08481l.7506-.10475.0589.43523-1.6609.23195c-.0159.0025-.0282.00873-.0368.0212-.0086.01123-.0123.02495-.0098.04116l.0442.32673c.0024.01621.0086.02868.0209.03741z"/><path d="m18.2291 1.91789c0 .01871.0061.03367.0184.04739s.0295.01995.0504.01995l.4128.01372-.0074.21949-.4116-.01372c-.0208 0-.0368.00499-.0516.01746-.0147.01247-.0208.02743-.0221.04614 0 .01122.0025.0237.0086.03866l.1978.37038-.1929.10351-.194-.37038c-.0111-.02494-.0295-.03866-.0566-.03991-.0245 0-.0442.01122-.0589.03617l-.2211.35666-.1819-.11598.2175-.35666c.0073-.01372.011-.02619.011-.03741 0-.01871-.0049-.03368-.0172-.04739-.0122-.01247-.0282-.01996-.0479-.01996l-.4152-.01371.0074-.21949.4152.01372c.0209 0 .0369-.00499.0491-.01746.0123-.01247.0197-.02744.0197-.04614 0-.01123-.0025-.0237-.0086-.03866l-.1941-.37038.1892-.10351.1978.37038c.0122.02619.0319.03866.0565.03991.0245 0 .0442-.01123.0589-.03617l.2175-.35666.1855.11598-.2212.35666c-.0073.01372-.011.02619-.011.03741z"/><path d="m20.7536 4.37088.2285-1.12985c.0049-.03617-.0086-.05737-.0418-.06485l-1.6425-.3417.0873-.43024 1.6424.3417c.0271.00499.0418.00624.0479.0025.005-.00375.0111-.01871.016-.04615l.0762-.37661c.0061-.03367-.0074-.05487-.0418-.06485l-1.6425-.3417.0873-.43024 1.5896.33048c.0356.00748.0639.01621.086.02618.0221.00998.043.02993.0614.05986l.2531.38909c.0196.02993.0295.05737.0307.08106 0 .02494-.0025.05487-.0098.09104l-.0111.05362c-.0074.03617-.0196.06734-.0381.09478-.0184.02743-.0553.05986-.1118.09727l-.3722.20327c-.0184.01247-.0295.02744-.0332.04615-.0036.01995 0 .04115.0111.06235l.2641.33546c.0369.05612.0578.10102.0639.13469.0061.03242.0049.06734-.0012.1035l-.1192.59112c-.011.05611-.0356.10475-.0725.14715-.0368.0424-.0835.07233-.14.08854l-1.0933.22073c-.0725.01996-.1475.0237-.2224.00998l-.742-.15464.0872-.43024 1.6425.3417c.0356.00499.0565-.00873.0639-.0424z"/><path d="m23.7965 3.70496c.0196.01496.0356.03865.0491.07108l.172.43149c.0135.03242.0172.0611.0135.08604-.0037.02495-.0135.05363-.027.0873l-.3391.8081c-.0221.05238-.0552.09603-.1007.1297-.0454.03367-.097.05362-.1548.05861l-1.1154-.00374c-.075.00499-.1487-.00748-.2199-.03492l-.2494-.10725c-.0344-.01247-.0577-.00249-.0712.02869l-.317.75822-.398-.1721 1.1855-2.82961 1.4925.64474c.0332.01372.059.02868.0787.04365zm-1.8009 1.12236 1.0945.47264c.0307.01372.0553.00374.0713-.02868l.4656-1.11114c.0135-.03118.0036-.05612-.0283-.07233l-1.0946-.47264c-.0344-.01247-.0577-.0025-.0712.02868l-.4656 1.11114c-.0123.03492-.0025.05861.0283.07233z"/><path d="m24.6183 4.62154c.0185-.01622.0443-.02869.0787-.03492l.4508-.08605c.0344-.00623.0627-.00499.086.00374.0221.00873.0491.0237.0786.0449l.8919.62104c.0295.0212.0528.03991.0688.05861.0159.01871.0282.0449.0344.07981l.0835.45768c.0062.03492.0049.0636-.0037.0873-.0086.02244-.0233.04988-.0442.07981l-.6118.90537c-.0209.02993-.0393.05363-.0577.06984s-.0442.02868-.0786.03492l-.4509.08605c-.0344.00623-.0626.00498-.086-.00375-.0233-.00872-.0491-.02369-.0786-.04489l-.8919-.62104c-.0294-.0212-.0528-.03991-.0688-.05861-.0159-.01871-.0282-.0449-.0344-.07982l-.0847-.45767c-.0062-.03492-.0049-.0636.0037-.0873.0086-.02245.0233-.04988.0442-.07981l.6118-.90538c.0209-.02993.0393-.05362.0577-.06983zm-.3292 1.34559.9815.6834c.0308.0187.0566.01371.075-.01372l.6732-.99641c.0196-.02869.0147-.05363-.0135-.07608l-.9816-.68214c-.0307-.01871-.0565-.01372-.0749.01371l-.6732.99641c-.0197.02869-.0147.05363.0135.07608z"/><path d="m28.0752 7.48858-.8304-.86547c-.027-.02494-.0528-.02494-.0762 0l-1.2002 1.18722-.3022-.31427 1.5491-1.53265 1.1327 1.17973c.0257.02619.0442.04988.0565.07108.0122.0212.0184.04989.0184.08481l-.0062.46515c0 .03617-.0073.06361-.0196.08481-.0135.0212-.032.04364-.0577.06983l-1.1622 1.1498-.3022-.31426 1.2002-1.18721c.0246-.0237.0246-.04989 0-.07732z"/><path d="m30.1477 8.01233-.6806.4477c-.0307.01996-.0356.0449-.016.07608l.9115 1.42789-.3636.2394-.9115-1.42786c-.0197-.03117-.0442-.03616-.0749-.01621l-.9988.65721c-.0295.0212-.0344.04739-.016.07607l.9116 1.42789-.3637.2394-.4115-.6447c-.0393-.0661-.0639-.1384-.0725-.2145l-.1953-1.11362c-.0049-.05861.0049-.11349.0295-.16462.0258-.05113.0614-.09103.1093-.12221l1.9066-1.25331.2359.36914z"/><path d="m30.2865 10.8108c.0245-.0038.0516.0012.0847.0162l.4214.1858c.0319.0137.0553.0312.0688.0511.0135.02.027.0474.0405.0811l.3968 1.0213c.0135.0337.0221.0636.0246.0873.0024.0237-.0012.0524-.016.0861l-.183.4277c-.0135.0324-.0307.0561-.0504.0699-.0196.0137-.0467.0274-.0798.0411l-1.0062.4028c-.0331.0137-.0626.0212-.0859.025-.0234.0037-.0516-.0013-.0848-.0163l-.4214-.1858c-.0319-.0137-.0553-.0311-.0688-.0511s-.027-.0474-.0405-.0811l-.3968-1.0213c-.0135-.0337-.0221-.0636-.0246-.0873-.0037-.025.0013-.0536.016-.0861l.183-.4277c.0136-.0324.0308-.0561.0504-.0698.0197-.0138.0467-.0275.0799-.0412l1.0061-.4028c.0331-.0137.0626-.0224.086-.0249zm-1.0147.929.4373 1.1236c.0147.0337.0393.0437.07.0312l1.1069-.4439c.0319-.0125.0417-.0362.0307-.0711l-.4374-1.1236c-.0147-.0337-.038-.0437-.07-.0312l-1.1068.4439c-.032.0125-.0418.0362-.0307.0711z"/><path d="m30.9412 14.0008c-.0086.0125-.011.0262-.0086.0411l.1991 1.1349c.0061.0361.0086.0661.0073.091-.0012.025-.0123.0511-.0319.0811l-.2629.3816c-.0197.0287-.0405.0486-.0602.0573-.0197.01-.0504.0175-.0897.025l-.2125.0386c-.0356.0063-.0651.0088-.0897.0075-.0246-.0012-.0503-.0124-.0798-.0324l-.3759-.2669c-.0283-.0199-.048-.0411-.0578-.0648s-.0172-.0524-.0245-.0886l-.2851-1.6212.4263-.0773.2936 1.6748c.0062.0337.0271.0487.0627.0449l.3194-.0573c.0331-.0063.0479-.0275.0442-.0636l-.199-1.1349c-.0061-.0361-.0086-.0661-.0074-.091.0013-.0249.0123-.0511.032-.0811l.2629-.3816c.027-.0399.0773-.0673.1498-.0835.0578-.01.1118-.0063.1634.0137s.0946.0536.1302.0998l.6057.9502c.0454.0611.0761.131.0909.207l.1326.757-.4262.0773-.2936-1.6748c-.0025-.0162-.0099-.0274-.0221-.0361-.0123-.0088-.0258-.0113-.0406-.0088l-.3194.0574c-.016.0025-.027.01-.0356.0224z"/></g></svg>
